<?xml version="1.0" encoding="utf-8"?>
<!-- Generator: Adobe Illustrator 22.1.0, SVG Export Plug-In . SVG Version: 6.00 Build 0)  -->
<svg version="1.1" id="Layer_1" xmlns="http://www.w3.org/2000/svg" xmlns:xlink="http://www.w3.org/1999/xlink" x="0px" y="0px"
	 viewBox="0 0 200 200" style="enable-background:new 0 0 200 200;" xml:space="preserve">
<style type="text/css">
	.st0{fill:none;stroke:#5CD5FF;stroke-miterlimit:10;}
	.st1{fill:#08005C;stroke:#000000;stroke-miterlimit:10;}
	.st2{fill:#FFFFFF;stroke:#5CD5FF;stroke-miterlimit:10;}
	.st3{font-family:'OCRAStd';}
	.st4{font-size:43.0359px;}
	.st5{fill:none;stroke:#67B9E3;stroke-miterlimit:10;}
</style>
<path class="st0" d="M84.9,181c62.1-4.7,111.2-41.9,109.1-82.4C191.6,57.8,138.3,28,76,32.4"/>
<ellipse class="st1" cx="114.6" cy="108.5" rx="50.4" ry="51.5"/>
<path class="st0" d="M83.5,180.6c9.1-0.5,18.1-2.1,26.4-4.2c43.5-11.2,75.1-42.3,73.9-76.3c-1.4-41-49.1-71.9-105.7-68.5"/>
<ellipse class="st2" cx="109.5" cy="101.2" rx="6.6" ry="9.1"/>
<ellipse class="st2" cx="85.7" cy="67" rx="2" ry="2.9"/>
<ellipse class="st2" cx="98.8" cy="103.3" rx="2" ry="2.9"/>
<ellipse class="st2" cx="112.1" cy="128.2" rx="2" ry="2.9"/>
<ellipse class="st2" cx="129.4" cy="79.7" rx="2" ry="2.9"/>
<ellipse class="st2" cx="101" cy="60.3" rx="2" ry="2.9"/>
<text transform="matrix(0.268 -0.4999 0.6436 0.7654 28.1831 142.8383)" class="st3 st4">SpaceX</text>
<text transform="matrix(0.268 -0.4999 0.6436 0.7654 28.1831 142.8383)" class="st5 st3 st4">SpaceX</text>
</svg>
